<svg id="svg" version="1.1" xmlns="http://www.w3.org/2000/svg" xmlns:xlink="http://www.w3.org/1999/xlink" width="400" height="400" viewBox="0, 0, 400,400"><g id="svgg"><path id="path0" d="M308.000 156.248 C 302.473 157.269,300.769 157.761,296.600 159.534 C 266.630 172.282,265.258 226.688,294.507 242.534 C 307.596 249.625,325.574 248.372,335.897 239.648 C 339.376 236.708,339.137 236.733,340.506 239.170 C 345.223 247.568,359.982 247.935,365.389 239.790 C 368.250 235.480,368.482 229.653,367.638 183.400 L 367.345 167.400 366.317 165.150 C 361.535 154.691,345.461 153.663,339.930 163.462 C 338.484 166.025,338.680 166.008,336.200 163.786 C 332.806 160.745,328.472 158.473,323.200 156.971 C 321.041 156.356,310.204 155.840,308.000 156.248 M238.600 158.466 C 234.644 159.798,231.774 162.655,230.079 166.946 C 229.523 168.352,229.390 171.242,229.190 186.200 C 228.931 205.513,228.965 205.251,226.244 209.513 C 221.835 216.423,210.141 217.278,204.584 211.098 C 201.228 207.365,201.072 206.368,200.782 186.800 C 200.504 168.024,200.483 167.861,197.839 163.894 C 192.437 155.786,178.335 156.110,172.975 164.464 C 170.348 168.558,170.025 173.690,170.816 198.800 C 171.330 215.143,172.297 220.154,176.332 227.400 C 182.223 237.978,191.279 242.613,206.000 242.586 C 216.771 242.567,221.508 240.849,228.372 234.474 C 229.688 233.251,229.755 233.528,229.522 239.196 C 228.879 254.797,212.632 259.748,196.867 249.148 C 188.757 243.694,179.645 245.580,175.350 253.600 C 174.044 256.039,174.264 263.916,175.722 266.884 C 182.592 280.877,217.916 286.368,237.764 276.528 C 249.590 270.666,256.486 261.086,259.010 247.017 C 260.010 241.442,259.643 172.146,258.593 168.277 C 256.253 159.651,247.635 155.422,238.600 158.466 M143.800 158.831 C 137.750 160.338,136.086 163.058,130.232 181.000 C 127.648 188.920,125.383 195.760,125.197 196.200 C 125.012 196.640,124.352 198.662,123.730 200.694 C 122.344 205.225,122.039 205.262,120.410 201.100 C 119.699 199.285,118.342 195.820,117.392 193.400 C 116.443 190.980,115.005 187.290,114.196 185.200 C 106.667 165.745,106.601 165.596,104.415 163.111 C 99.444 157.465,89.795 157.345,84.554 162.866 C 82.085 165.468,82.133 165.364,76.912 179.400 C 75.030 184.460,73.142 189.500,72.716 190.600 C 72.290 191.700,71.760 193.140,71.538 193.800 C 71.316 194.460,70.970 195.360,70.771 195.800 C 70.571 196.240,69.791 198.310,69.038 200.400 C 67.187 205.540,67.161 205.600,66.784 205.600 C 66.603 205.600,66.340 205.195,66.202 204.700 C 66.063 204.205,65.795 203.440,65.606 203.000 C 65.417 202.560,64.422 199.680,63.396 196.600 C 62.370 193.520,61.373 190.640,61.181 190.200 C 60.874 189.497,57.654 180.221,56.183 175.800 C 54.683 171.292,52.758 166.225,52.328 165.649 C 44.353 154.979,27.903 157.817,25.250 170.320 C 24.274 174.919,24.857 178.463,27.600 184.600 C 27.797 185.040,29.417 188.820,31.200 193.000 C 32.983 197.180,34.603 200.960,34.799 201.400 C 34.996 201.840,36.619 205.620,38.406 209.800 C 40.192 213.980,41.812 217.760,42.005 218.200 C 42.198 218.640,42.745 219.900,43.220 221.000 C 43.696 222.100,44.324 223.540,44.616 224.200 C 44.909 224.860,46.342 228.190,47.802 231.600 C 53.404 244.691,57.017 248.007,65.662 247.997 C 74.325 247.987,78.880 243.769,82.940 232.000 C 83.509 230.350,84.353 228.010,84.815 226.800 C 85.278 225.590,85.977 223.700,86.370 222.600 C 88.996 215.240,93.668 202.972,93.953 202.687 C 94.264 202.376,95.725 205.874,102.271 222.600 C 107.623 236.276,108.664 238.704,110.091 240.840 C 115.626 249.130,129.022 249.801,135.126 242.094 C 136.216 240.718,139.200 235.241,139.200 234.617 C 139.200 234.434,141.828 227.929,145.185 219.800 C 145.822 218.260,146.797 215.830,147.354 214.400 C 147.910 212.970,149.112 210.000,150.023 207.800 C 151.665 203.837,153.063 200.408,158.949 185.905 C 163.234 175.348,163.699 170.926,161.071 165.740 C 158.240 160.153,150.662 157.121,143.800 158.831 M328.076 185.145 C 340.955 191.354,340.979 211.697,328.114 217.788 C 316.279 223.393,304.391 215.146,304.403 201.338 C 304.415 187.823,316.493 179.561,328.076 185.145 " stroke="none" fill="#fbfbfb" fill-rule="evenodd"></path><path id="path1" d="M70.848 0.637 C 68.345 0.940,66.091 1.359,65.838 1.568 C 65.586 1.777,64.440 2.073,63.290 2.226 C 62.141 2.378,61.200 2.636,61.200 2.799 C 61.200 2.963,60.120 3.308,58.800 3.568 C 57.480 3.828,56.400 4.195,56.400 4.385 C 56.400 4.575,55.680 4.851,54.800 5.000 C 53.920 5.149,53.200 5.415,53.200 5.592 C 53.200 5.769,52.711 6.036,52.114 6.186 C 51.517 6.336,50.266 6.805,49.336 7.229 C 48.405 7.653,47.454 8.000,47.222 8.000 C 46.990 8.000,46.800 8.151,46.800 8.336 C 46.800 8.521,46.080 8.910,45.200 9.200 C 44.320 9.490,43.600 9.877,43.600 10.059 C 43.600 10.240,43.015 10.658,42.300 10.987 C 40.823 11.665,39.683 12.371,38.888 13.100 C 38.588 13.375,38.203 13.600,38.033 13.600 C 37.760 13.600,37.142 14.054,35.317 15.593 C 35.051 15.817,34.648 16.000,34.420 16.000 C 34.193 16.000,33.782 16.360,33.507 16.800 C 33.232 17.240,32.811 17.600,32.571 17.600 C 31.846 17.600,20.814 27.958,20.787 28.664 C 20.780 28.849,20.151 29.620,19.389 30.379 C 18.627 31.137,17.906 32.065,17.787 32.442 C 17.667 32.818,17.306 33.227,16.985 33.350 C 16.663 33.474,16.400 33.811,16.400 34.099 C 16.400 34.387,16.085 34.920,15.700 35.283 C 14.716 36.212,14.187 36.900,13.594 38.025 C 13.312 38.561,12.972 39.090,12.840 39.200 C 12.482 39.498,11.281 41.645,10.770 42.900 C 10.523 43.505,10.188 44.000,10.024 44.000 C 9.861 44.000,9.498 44.765,9.219 45.700 C 8.940 46.635,8.587 47.490,8.434 47.600 C 7.937 47.959,6.507 51.001,6.218 52.316 C 6.063 53.022,5.791 53.600,5.613 53.600 C 5.435 53.600,5.172 54.222,5.030 54.983 C 4.887 55.744,4.520 56.847,4.215 57.435 C 3.910 58.023,3.540 59.381,3.393 60.452 C 3.245 61.524,2.962 62.400,2.762 62.400 C 2.563 62.400,2.400 62.816,2.400 63.325 C 2.400 63.833,2.051 65.588,1.625 67.225 C -0.000 73.460,-0.053 78.163,0.099 204.200 C 0.246 326.028,0.299 330.567,1.594 332.200 C 1.768 332.420,2.039 333.725,2.195 335.100 C 2.351 336.475,2.616 337.600,2.785 337.600 C 2.953 337.600,3.320 338.680,3.600 340.000 C 3.880 341.320,4.244 342.400,4.409 342.400 C 4.574 342.400,4.831 343.210,4.979 344.200 C 5.128 345.190,5.397 346.000,5.577 346.000 C 5.757 346.000,6.109 346.810,6.358 347.800 C 6.608 348.790,6.975 349.600,7.174 349.600 C 7.373 349.600,7.655 350.140,7.800 350.800 C 7.945 351.460,8.201 352.000,8.368 352.000 C 8.536 352.000,8.889 352.720,9.153 353.600 C 9.416 354.480,9.791 355.200,9.984 355.200 C 10.178 355.200,10.455 355.739,10.599 356.398 C 10.744 357.056,11.077 357.731,11.340 357.898 C 11.602 358.064,12.047 358.650,12.328 359.200 C 13.587 361.663,14.069 362.400,14.422 362.400 C 14.630 362.400,14.800 362.633,14.800 362.919 C 14.800 363.445,15.631 364.683,16.900 366.047 C 17.285 366.461,17.600 366.936,17.600 367.103 C 17.600 367.269,18.230 367.984,19.000 368.690 C 19.770 369.397,20.400 370.152,20.400 370.369 C 20.400 370.848,29.201 379.600,29.683 379.600 C 29.871 379.600,30.578 380.230,31.254 381.000 C 31.930 381.770,32.734 382.400,33.041 382.400 C 33.349 382.400,33.600 382.548,33.600 382.729 C 33.600 383.104,36.683 385.200,37.236 385.200 C 37.436 385.200,37.600 385.370,37.600 385.578 C 37.600 385.931,38.337 386.413,40.800 387.672 C 41.350 387.953,41.936 388.398,42.102 388.660 C 42.269 388.923,42.944 389.256,43.602 389.401 C 44.261 389.545,44.800 389.792,44.800 389.949 C 44.800 390.271,49.282 392.400,49.960 392.400 C 50.202 392.400,50.400 392.580,50.400 392.800 C 50.400 393.020,50.665 393.200,50.988 393.200 C 51.312 393.200,52.560 393.650,53.763 394.200 C 54.965 394.750,56.320 395.200,56.774 395.200 C 57.228 395.200,57.600 395.355,57.600 395.545 C 57.600 395.735,58.725 396.122,60.100 396.405 C 61.475 396.688,62.780 397.056,63.000 397.222 C 63.220 397.389,64.300 397.655,65.400 397.813 C 66.500 397.971,67.580 398.242,67.800 398.413 C 70.573 400.579,332.400 400.565,332.400 398.399 C 332.400 398.231,333.570 397.968,335.000 397.815 C 336.430 397.662,337.600 397.395,337.600 397.223 C 337.600 397.050,338.725 396.671,340.100 396.379 C 341.475 396.087,343.050 395.614,343.600 395.327 C 344.150 395.040,344.915 394.804,345.300 394.802 C 345.685 394.801,346.000 394.657,346.000 394.483 C 346.000 394.309,346.810 393.949,347.800 393.684 C 348.790 393.420,349.600 393.037,349.600 392.833 C 349.600 392.630,350.178 392.337,350.884 392.182 C 352.431 391.842,355.200 390.444,355.200 390.003 C 355.200 389.829,355.684 389.565,356.276 389.417 C 356.867 389.268,357.840 388.799,358.437 388.373 C 359.035 387.948,359.721 387.600,359.962 387.600 C 360.203 387.600,360.400 387.420,360.400 387.200 C 360.400 386.980,360.592 386.800,360.827 386.800 C 361.061 386.800,361.843 386.350,362.564 385.800 C 363.286 385.250,363.994 384.800,364.138 384.800 C 364.282 384.800,364.747 384.485,365.171 384.100 C 365.994 383.354,366.128 383.248,368.600 381.412 C 369.480 380.758,370.761 379.633,371.447 378.912 C 372.133 378.190,372.807 377.600,372.945 377.600 C 373.272 377.600,378.000 372.943,378.000 372.621 C 378.000 372.485,378.498 371.884,379.107 371.287 C 379.716 370.689,380.750 369.480,381.405 368.600 C 382.059 367.720,382.821 366.856,383.098 366.680 C 383.374 366.504,383.600 366.094,383.600 365.768 C 383.600 365.442,383.870 365.071,384.200 364.945 C 384.530 364.818,384.800 364.458,384.800 364.145 C 384.800 363.831,385.063 363.474,385.385 363.350 C 385.706 363.227,386.078 362.784,386.211 362.365 C 386.344 361.947,386.666 361.372,386.926 361.088 C 387.524 360.436,388.652 358.532,389.287 357.100 C 389.556 356.495,389.902 356.000,390.056 356.000 C 390.210 356.000,390.455 355.460,390.600 354.800 C 390.745 354.140,391.000 353.600,391.168 353.600 C 391.335 353.600,391.710 352.880,392.000 352.000 C 392.290 351.120,392.663 350.400,392.827 350.400 C 392.992 350.400,393.357 349.500,393.639 348.400 C 393.921 347.300,394.277 346.400,394.431 346.400 C 394.585 346.400,394.827 345.783,394.968 345.029 C 395.110 344.275,395.385 343.600,395.580 343.529 C 395.775 343.458,396.168 342.230,396.454 340.800 C 396.740 339.370,397.113 338.100,397.284 337.978 C 397.454 337.856,397.713 336.866,397.858 335.778 C 398.004 334.690,398.253 333.710,398.413 333.600 C 400.720 332.008,400.732 68.610,398.425 65.830 C 398.219 65.582,397.927 64.440,397.774 63.290 C 397.622 62.141,397.373 61.200,397.222 61.200 C 397.071 61.200,396.714 60.030,396.430 58.600 C 396.146 57.170,395.761 56.000,395.575 56.000 C 395.389 56.000,395.118 55.370,394.974 54.600 C 394.829 53.830,394.569 53.200,394.395 53.200 C 394.222 53.200,393.864 52.300,393.600 51.200 C 393.336 50.100,392.958 49.200,392.760 49.200 C 392.562 49.200,392.400 48.978,392.400 48.706 C 392.400 48.190,390.383 43.948,389.972 43.600 C 389.842 43.490,389.481 42.815,389.170 42.100 C 388.859 41.385,388.469 40.800,388.302 40.800 C 388.136 40.800,388.000 40.539,388.000 40.220 C 388.000 39.901,387.775 39.496,387.499 39.320 C 387.224 39.144,386.729 38.460,386.400 37.800 C 386.071 37.140,385.576 36.456,385.301 36.280 C 385.025 36.104,384.800 35.699,384.800 35.380 C 384.800 35.061,384.650 34.800,384.468 34.800 C 384.285 34.800,383.880 34.319,383.568 33.731 C 382.853 32.386,381.569 30.837,378.900 28.101 C 377.745 26.917,376.800 25.834,376.800 25.696 C 376.800 25.333,374.707 23.200,374.351 23.200 C 374.187 23.200,373.083 22.255,371.899 21.100 C 369.367 18.630,367.223 16.800,366.859 16.800 C 366.716 16.799,366.060 16.353,365.400 15.807 C 363.599 14.319,363.495 14.248,362.200 13.601 C 361.540 13.271,360.856 12.776,360.680 12.501 C 360.504 12.225,360.099 12.000,359.780 12.000 C 359.461 12.000,359.200 11.832,359.200 11.626 C 359.200 11.420,358.570 11.024,357.800 10.746 C 357.030 10.467,356.400 10.124,356.400 9.984 C 356.400 9.843,355.680 9.490,354.800 9.200 C 353.920 8.910,353.200 8.535,353.200 8.368 C 353.200 8.200,352.660 7.945,352.000 7.800 C 351.340 7.655,350.800 7.390,350.800 7.212 C 350.800 7.033,350.305 6.765,349.700 6.616 C 348.750 6.381,346.494 5.442,344.380 4.399 C 344.039 4.231,342.734 3.864,341.480 3.583 C 340.226 3.302,339.200 2.921,339.200 2.736 C 339.200 2.551,338.784 2.400,338.275 2.400 C 337.767 2.400,336.012 2.050,334.375 1.623 C 332.739 1.196,329.536 0.656,327.258 0.423 C 320.414 -0.276,76.710 -0.073,70.848 0.637 M321.094 156.049 C 324.451 156.839,329.600 158.555,329.600 158.882 C 329.600 159.057,329.849 159.200,330.154 159.200 C 330.921 159.200,335.092 162.050,336.859 163.781 L 338.317 165.211 339.319 163.506 C 344.964 153.890,361.222 153.860,365.959 163.457 C 366.487 164.526,367.102 165.760,367.326 166.200 C 368.129 167.775,368.424 180.145,368.313 207.555 L 368.200 235.400 366.868 238.097 C 361.945 248.067,346.565 249.260,340.596 240.134 C 339.757 238.850,339.021 237.737,338.961 237.659 C 338.901 237.582,338.116 238.247,337.216 239.137 C 323.103 253.110,294.628 249.456,281.866 232.036 C 279.443 228.728,276.429 222.601,275.355 218.800 C 271.214 204.140,272.464 188.286,278.728 176.014 C 284.233 165.232,292.435 159.278,306.200 156.074 C 308.504 155.537,318.849 155.520,321.094 156.049 M249.418 157.849 C 250.838 158.205,252.000 158.655,252.000 158.849 C 252.000 159.042,252.275 159.200,252.611 159.200 C 255.101 159.200,258.917 165.899,259.559 171.400 C 260.080 175.859,260.460 239.527,259.988 243.425 C 257.742 262.008,248.786 273.665,232.538 279.153 C 210.879 286.469,179.858 279.404,174.784 266.000 C 169.042 250.830,183.869 239.978,197.800 249.155 C 213.330 259.386,229.162 253.609,229.194 237.700 C 229.201 234.394,229.091 234.308,227.188 236.128 C 225.837 237.420,222.273 240.000,221.840 240.000 C 221.721 240.000,220.640 240.450,219.437 241.000 C 218.235 241.550,216.958 242.000,216.599 242.000 C 216.241 242.000,215.598 242.187,215.171 242.416 C 211.979 244.124,196.748 243.342,191.800 241.216 C 182.218 237.099,177.120 231.799,173.127 221.800 C 172.778 220.926,171.749 216.848,171.159 214.000 C 170.458 210.616,169.783 173.567,170.367 170.507 C 172.016 161.864,176.894 157.798,185.600 157.811 C 197.483 157.829,201.179 163.157,201.223 180.332 C 201.280 202.962,201.850 207.508,205.072 211.035 C 209.682 216.083,220.149 215.837,224.771 210.572 C 228.363 206.481,228.793 203.735,228.797 184.862 C 228.800 172.198,228.900 169.579,229.457 167.663 C 231.858 159.406,239.891 155.456,249.418 157.849 M99.200 159.053 C 103.772 160.559,106.246 163.480,108.979 170.600 C 110.343 174.156,111.153 176.167,112.071 178.278 C 112.472 179.201,112.806 180.101,112.814 180.278 C 112.821 180.455,113.175 181.320,113.600 182.200 C 114.025 183.080,114.379 184.002,114.386 184.249 C 114.399 184.664,115.242 186.770,116.633 189.860 C 116.945 190.554,117.200 191.296,117.200 191.510 C 117.200 191.857,117.565 192.776,119.382 197.000 C 119.665 197.660,120.324 199.415,120.845 200.900 C 122.069 204.387,122.036 204.410,123.774 198.900 C 124.590 196.315,125.490 193.659,125.775 192.998 C 126.060 192.338,126.428 191.168,126.593 190.398 C 126.758 189.629,127.031 188.820,127.200 188.600 C 127.369 188.380,127.637 187.570,127.796 186.800 C 127.955 186.030,128.314 184.860,128.595 184.200 C 128.877 183.540,130.216 179.580,131.571 175.400 C 136.319 160.762,138.825 158.200,148.400 158.200 C 160.127 158.200,166.483 168.781,161.736 180.400 C 161.061 182.050,159.670 185.470,158.643 188.000 C 157.616 190.530,156.611 192.960,156.409 193.400 C 156.208 193.840,155.660 195.190,155.191 196.400 C 154.723 197.610,154.108 199.140,153.826 199.800 C 153.543 200.460,152.902 202.080,152.401 203.400 C 151.900 204.720,151.256 206.340,150.970 207.000 C 150.684 207.660,149.981 209.370,149.407 210.800 C 148.833 212.230,148.197 213.760,147.992 214.200 C 147.787 214.640,147.007 216.530,146.258 218.400 C 143.661 224.886,141.174 231.004,140.810 231.800 C 140.609 232.240,139.766 234.216,138.936 236.190 C 135.454 244.478,130.891 247.800,122.992 247.800 C 117.873 247.800,114.716 246.622,111.669 243.574 C 109.330 241.236,108.500 239.713,105.691 232.600 C 105.343 231.720,104.758 230.280,104.391 229.400 C 104.024 228.520,103.306 226.630,102.796 225.200 C 102.287 223.770,101.742 222.420,101.587 222.200 C 101.431 221.980,101.081 221.108,100.808 220.261 C 100.536 219.415,100.063 218.245,99.759 217.661 C 99.454 217.078,99.204 216.319,99.202 215.976 C 99.201 215.634,98.936 215.004,98.613 214.576 C 98.290 214.149,98.019 213.530,98.010 213.200 C 98.002 212.870,97.746 212.122,97.441 211.539 C 97.137 210.955,96.664 209.785,96.392 208.939 C 96.119 208.092,95.755 207.220,95.584 207.000 C 95.412 206.780,95.109 205.970,94.911 205.200 C 94.361 203.070,93.942 203.537,92.172 208.258 C 91.276 210.646,90.439 212.870,90.313 213.200 C 90.186 213.530,89.677 214.970,89.183 216.400 C 88.688 217.830,88.066 219.540,87.801 220.200 C 86.398 223.694,85.600 225.851,85.600 226.147 C 85.600 226.330,85.350 227.046,85.046 227.740 C 84.741 228.433,84.084 230.170,83.587 231.600 C 79.584 243.115,76.295 246.797,68.882 248.069 C 59.140 249.739,53.402 245.819,48.290 234.000 C 47.957 233.230,47.296 231.700,46.820 230.600 C 46.345 229.500,45.796 228.240,45.599 227.800 C 45.403 227.360,44.408 225.020,43.388 222.600 C 41.415 217.916,40.791 216.463,39.524 213.600 C 38.448 211.167,38.385 211.020,35.580 204.400 C 34.229 201.210,32.764 197.790,32.326 196.800 C 31.887 195.810,31.379 194.640,31.196 194.200 C 31.013 193.760,30.399 192.343,29.832 191.052 C 29.264 189.760,28.800 188.455,28.800 188.152 C 28.800 187.848,28.620 187.600,28.400 187.600 C 28.180 187.600,28.000 187.398,28.000 187.150 C 28.000 186.725,26.685 183.499,25.249 180.400 C 22.346 174.137,25.802 163.666,31.800 160.552 C 41.685 155.420,51.054 159.638,55.011 171.000 C 55.624 172.760,56.828 176.180,57.688 178.600 C 58.547 181.020,59.428 183.630,59.644 184.400 C 59.861 185.170,60.209 186.160,60.419 186.600 C 60.629 187.040,61.053 188.210,61.361 189.200 C 62.710 193.538,66.383 203.743,66.715 204.075 C 66.933 204.293,67.523 203.194,68.193 201.319 C 68.806 199.604,69.527 197.660,69.794 197.000 C 71.127 193.711,72.001 191.345,72.014 190.992 C 72.021 190.777,72.375 189.880,72.800 189.000 C 73.225 188.120,73.579 187.173,73.586 186.895 C 73.594 186.617,73.780 186.077,73.999 185.695 C 74.218 185.313,75.571 181.760,77.005 177.800 C 78.439 173.840,79.778 170.240,79.981 169.800 C 80.184 169.360,80.475 168.550,80.628 168.000 C 81.047 166.493,83.472 162.995,85.074 161.589 C 86.692 160.168,89.880 158.633,92.000 158.255 C 93.521 157.983,97.185 158.390,99.200 159.053 M316.942 184.389 C 309.233 186.038,304.280 193.714,304.934 203.000 C 306.513 225.394,337.200 223.824,337.200 201.349 C 337.200 189.978,327.761 182.076,316.942 184.389 " stroke="none" fill="#b44494" fill-rule="evenodd"></path><path id="path2" d="M312.700 155.889 C 313.415 155.978,314.585 155.978,315.300 155.889 C 316.015 155.801,315.430 155.728,314.000 155.728 C 312.570 155.728,311.985 155.801,312.700 155.889 M349.200 156.820 C 348.526 157.049,348.851 157.084,350.200 156.928 C 351.300 156.801,352.275 156.631,352.367 156.549 C 352.682 156.268,350.199 156.480,349.200 156.820 M353.300 156.676 C 353.685 156.776,354.315 156.776,354.700 156.676 C 355.085 156.575,354.770 156.493,354.000 156.493 C 353.230 156.493,352.915 156.575,353.300 156.676 M147.305 158.287 C 147.914 158.379,148.814 158.377,149.305 158.282 C 149.797 158.187,149.300 158.111,148.200 158.114 C 147.100 158.117,146.697 158.195,147.305 158.287 M93.505 158.683 C 94.002 158.779,94.722 158.775,95.105 158.675 C 95.487 158.575,95.080 158.496,94.200 158.501 C 93.320 158.505,93.007 158.587,93.505 158.683 M39.105 159.083 C 39.602 159.179,40.322 159.175,40.705 159.075 C 41.087 158.975,40.680 158.896,39.800 158.901 C 38.920 158.905,38.607 158.987,39.105 159.083 M362.000 159.325 C 362.000 159.394,362.585 159.979,363.300 160.625 L 364.600 161.800 363.425 160.500 C 362.330 159.288,362.000 159.016,362.000 159.325 M84.581 162.500 L 83.000 164.200 84.700 162.619 C 86.281 161.148,86.584 160.800,86.281 160.800 C 86.216 160.800,85.451 161.565,84.581 162.500 M158.600 162.400 C 159.459 163.280,160.252 164.000,160.362 164.000 C 160.472 164.000,159.859 163.280,159.000 162.400 C 158.141 161.520,157.348 160.800,157.238 160.800 C 157.128 160.800,157.741 161.520,158.600 162.400 M50.200 163.200 C 51.059 164.080,51.852 164.800,51.962 164.800 C 52.072 164.800,51.459 164.080,50.600 163.200 C 49.741 162.320,48.948 161.600,48.838 161.600 C 48.728 161.600,49.341 162.320,50.200 163.200 M171.000 168.400 C 170.848 169.091,170.807 169.741,170.909 169.842 C 171.011 169.944,171.209 169.453,171.350 168.750 C 171.683 167.083,171.360 166.760,171.000 168.400 M133.644 169.644 C 133.398 170.351,133.266 171.000,133.352 171.085 C 133.438 171.171,133.709 170.662,133.956 169.956 C 134.202 169.249,134.334 168.600,134.248 168.515 C 134.162 168.429,133.891 168.938,133.644 169.644 M367.777 182.200 C 367.777 188.800,367.832 191.556,367.899 188.325 C 367.966 185.093,367.966 179.693,367.899 176.325 C 367.832 172.956,367.777 175.600,367.777 182.200 M162.893 172.800 C 162.893 173.570,162.975 173.885,163.076 173.500 C 163.176 173.115,163.176 172.485,163.076 172.100 C 162.975 171.715,162.893 172.030,162.893 172.800 M24.509 174.000 C 24.509 174.990,24.587 175.395,24.682 174.900 C 24.778 174.405,24.778 173.595,24.682 173.100 C 24.587 172.605,24.509 173.010,24.509 174.000 M259.370 180.800 C 259.370 185.530,259.428 187.465,259.498 185.100 C 259.569 182.735,259.569 178.865,259.498 176.500 C 259.428 174.135,259.370 176.070,259.370 180.800 M170.566 198.000 C 170.566 202.070,170.625 203.735,170.698 201.700 C 170.771 199.665,170.771 196.335,170.698 194.300 C 170.625 192.265,170.566 193.930,170.566 198.000 M200.954 196.800 C 200.954 199.550,201.018 200.675,201.096 199.300 C 201.174 197.925,201.174 195.675,201.096 194.300 C 201.018 192.925,200.954 194.050,200.954 196.800 M63.429 196.800 C 63.576 197.350,63.864 198.070,64.067 198.400 C 64.325 198.817,64.357 198.695,64.171 198.000 C 64.024 197.450,63.736 196.730,63.533 196.400 C 63.275 195.983,63.243 196.105,63.429 196.800 M304.493 198.400 C 304.493 199.170,304.575 199.485,304.676 199.100 C 304.776 198.715,304.776 198.085,304.676 197.700 C 304.575 197.315,304.493 197.630,304.493 198.400 M273.337 201.400 C 273.339 203.160,273.409 203.830,273.493 202.889 C 273.578 201.949,273.577 200.509,273.491 199.689 C 273.405 198.870,273.336 199.640,273.337 201.400 M337.709 201.600 C 337.709 202.590,337.787 202.995,337.882 202.500 C 337.978 202.005,337.978 201.195,337.882 200.700 C 337.787 200.205,337.709 200.610,337.709 201.600 M201.206 203.833 C 201.209 204.255,201.395 204.870,201.618 205.200 C 201.915 205.638,201.952 205.476,201.756 204.600 C 201.427 203.129,201.198 202.810,201.206 203.833 M304.493 204.400 C 304.493 205.170,304.575 205.485,304.676 205.100 C 304.776 204.715,304.776 204.085,304.676 203.700 C 304.575 203.315,304.493 203.630,304.493 204.400 M170.909 209.200 C 170.909 210.190,170.987 210.595,171.082 210.100 C 171.178 209.605,171.178 208.795,171.082 208.300 C 170.987 207.805,170.909 208.210,170.909 209.200 M224.378 211.500 L 223.000 213.000 224.500 211.622 C 225.896 210.338,226.184 210.000,225.878 210.000 C 225.812 210.000,225.137 210.675,224.378 211.500 M368.172 220.200 C 368.172 225.260,368.229 227.275,368.299 224.677 C 368.369 222.080,368.368 217.940,368.298 215.477 C 368.228 213.015,368.171 215.140,368.172 220.200 M332.175 214.900 L 331.000 216.200 332.300 215.025 C 333.512 213.930,333.784 213.600,333.475 213.600 C 333.406 213.600,332.821 214.185,332.175 214.900 M319.905 219.483 C 320.402 219.579,321.122 219.575,321.505 219.475 C 321.887 219.375,321.480 219.296,320.600 219.301 C 319.720 219.305,319.407 219.387,319.905 219.483 M259.770 233.000 C 259.771 237.840,259.829 239.765,259.899 237.278 C 259.969 234.791,259.969 230.831,259.898 228.478 C 259.828 226.125,259.770 228.160,259.770 233.000 M175.400 226.400 C 175.741 227.060,176.111 227.600,176.221 227.600 C 176.331 227.600,176.141 227.060,175.800 226.400 C 175.459 225.740,175.089 225.200,174.979 225.200 C 174.869 225.200,175.059 225.740,175.400 226.400 M278.600 226.400 C 278.941 227.060,279.311 227.600,279.421 227.600 C 279.531 227.600,279.341 227.060,279.000 226.400 C 278.659 225.740,278.289 225.200,278.179 225.200 C 278.069 225.200,278.259 225.740,278.600 226.400 M368.093 231.600 C 368.093 232.370,368.175 232.685,368.276 232.300 C 368.376 231.915,368.376 231.285,368.276 230.900 C 368.175 230.515,368.093 230.830,368.093 231.600 M285.583 236.100 C 287.241 237.866,287.600 238.184,287.600 237.883 C 287.600 237.819,286.745 236.964,285.700 235.983 L 283.800 234.200 285.583 236.100 M203.913 243.095 C 205.076 243.176,206.876 243.176,207.913 243.093 C 208.951 243.011,208.000 242.945,205.800 242.946 C 203.600 242.947,202.751 243.014,203.913 243.095 M323.400 246.000 C 322.896 246.217,322.822 246.344,323.200 246.344 C 323.530 246.344,324.160 246.189,324.600 246.000 C 325.104 245.783,325.178 245.656,324.800 245.656 C 324.470 245.656,323.840 245.811,323.400 246.000 M351.491 245.889 C 352.201 245.977,353.461 245.979,354.291 245.892 C 355.121 245.805,354.540 245.733,353.000 245.731 C 351.460 245.729,350.781 245.800,351.491 245.889 M309.300 247.076 C 309.685 247.176,310.315 247.176,310.700 247.076 C 311.085 246.975,310.770 246.893,310.000 246.893 C 309.230 246.893,308.915 246.975,309.300 247.076 M317.300 247.076 C 317.685 247.176,318.315 247.176,318.700 247.076 C 319.085 246.975,318.770 246.893,318.000 246.893 C 317.230 246.893,316.915 246.975,317.300 247.076 M119.700 247.476 C 120.085 247.576,120.715 247.576,121.100 247.476 C 121.485 247.375,121.170 247.293,120.400 247.293 C 119.630 247.293,119.315 247.375,119.700 247.476 M223.400 251.450 C 222.681 252.062,222.534 252.305,223.033 252.057 C 223.766 251.693,225.141 250.376,224.749 250.414 C 224.667 250.422,224.060 250.888,223.400 251.450 M257.244 254.044 C 256.998 254.751,256.866 255.400,256.952 255.485 C 257.038 255.571,257.309 255.062,257.556 254.356 C 257.802 253.649,257.934 253.000,257.848 252.915 C 257.762 252.829,257.491 253.338,257.244 254.044 M211.300 254.691 C 212.125 254.778,213.475 254.778,214.300 254.691 C 215.125 254.605,214.450 254.534,212.800 254.534 C 211.150 254.534,210.475 254.605,211.300 254.691 M174.131 259.800 C 174.133 261.340,174.205 261.921,174.292 261.091 C 174.379 260.261,174.377 259.001,174.289 258.291 C 174.200 257.581,174.129 258.260,174.131 259.800 M247.978 269.500 L 246.600 271.000 248.100 269.622 C 249.496 268.338,249.784 268.000,249.478 268.000 C 249.412 268.000,248.737 268.675,247.978 269.500 M178.200 270.800 C 179.059 271.680,179.852 272.400,179.962 272.400 C 180.072 272.400,179.459 271.680,178.600 270.800 C 177.741 269.920,176.948 269.200,176.838 269.200 C 176.728 269.200,177.341 269.920,178.200 270.800 M206.905 281.487 C 207.514 281.579,208.414 281.577,208.905 281.482 C 209.397 281.387,208.900 281.311,207.800 281.314 C 206.700 281.317,206.297 281.395,206.905 281.487 M217.900 281.482 C 218.395 281.578,219.205 281.578,219.700 281.482 C 220.195 281.387,219.790 281.309,218.800 281.309 C 217.810 281.309,217.405 281.387,217.900 281.482 " stroke="none" fill="#dca4cc" fill-rule="evenodd"></path><path id="path3" d="M308.300 155.882 C 308.795 155.978,309.605 155.978,310.100 155.882 C 310.595 155.787,310.190 155.709,309.200 155.709 C 308.210 155.709,307.805 155.787,308.300 155.882 M317.905 155.883 C 318.402 155.979,319.122 155.975,319.505 155.875 C 319.887 155.775,319.480 155.696,318.600 155.701 C 317.720 155.705,317.407 155.787,317.905 155.883 M93.300 158.276 C 93.685 158.376,94.315 158.376,94.700 158.276 C 95.085 158.175,94.770 158.093,94.000 158.093 C 93.230 158.093,92.915 158.175,93.300 158.276 M39.105 158.683 C 39.602 158.779,40.322 158.775,40.705 158.675 C 41.087 158.575,40.680 158.496,39.800 158.501 C 38.920 158.505,38.607 158.587,39.105 158.683 M362.800 159.725 C 362.800 159.794,363.385 160.379,364.100 161.025 L 365.400 162.200 364.225 160.900 C 363.130 159.688,362.800 159.416,362.800 159.725 M174.575 161.700 L 173.400 163.000 174.700 161.825 C 175.912 160.730,176.184 160.400,175.875 160.400 C 175.806 160.400,175.221 160.985,174.575 161.700 M84.378 162.300 L 83.000 163.800 84.500 162.422 C 85.896 161.138,86.184 160.800,85.878 160.800 C 85.812 160.800,85.137 161.475,84.378 162.300 M157.600 160.925 C 157.600 160.994,158.185 161.579,158.900 162.225 L 160.200 163.400 159.025 162.100 C 157.930 160.888,157.600 160.616,157.600 160.925 M200.924 172.600 C 200.926 173.920,201.001 174.412,201.090 173.693 C 201.179 172.974,201.177 171.894,201.086 171.293 C 200.995 170.692,200.922 171.280,200.924 172.600 M170.173 181.000 C 170.173 186.500,170.230 188.805,170.299 186.123 C 170.368 183.441,170.368 178.941,170.299 176.123 C 170.230 173.305,170.174 175.500,170.173 181.000 M259.784 190.000 C 259.784 199.570,259.836 203.485,259.900 198.700 C 259.963 193.915,259.963 186.085,259.900 181.300 C 259.836 176.515,259.784 180.430,259.784 190.000 M368.172 185.000 C 368.172 190.060,368.229 192.075,368.299 189.477 C 368.369 186.880,368.368 182.740,368.298 180.277 C 368.228 177.815,368.171 179.940,368.172 185.000 M112.067 179.220 C 112.301 179.892,112.567 180.367,112.657 180.276 C 112.856 180.078,112.101 178.000,111.831 178.000 C 111.727 178.000,111.833 178.549,112.067 179.220 M25.018 179.700 C 25.168 180.195,25.455 180.776,25.656 180.991 C 25.857 181.206,25.819 180.801,25.572 180.091 C 25.065 178.638,24.597 178.308,25.018 179.700 M128.379 184.655 C 128.158 185.236,128.052 185.785,128.143 185.876 C 128.233 185.967,128.499 185.492,128.733 184.820 C 129.253 183.328,128.939 183.182,128.379 184.655 M319.900 183.882 C 320.395 183.978,321.205 183.978,321.700 183.882 C 322.195 183.787,321.790 183.709,320.800 183.709 C 319.810 183.709,319.405 183.787,319.900 183.882 M228.961 193.600 C 228.961 197.010,229.022 198.405,229.097 196.700 C 229.172 194.995,229.172 192.205,229.097 190.500 C 229.022 188.795,228.961 190.190,228.961 193.600 M72.379 189.855 C 72.158 190.436,72.052 190.985,72.143 191.076 C 72.233 191.167,72.499 190.692,72.733 190.020 C 73.253 188.528,72.939 188.382,72.379 189.855 M201.354 196.800 C 201.354 199.550,201.418 200.675,201.496 199.300 C 201.574 197.925,201.574 195.675,201.496 194.300 C 201.418 192.925,201.354 194.050,201.354 196.800 M273.309 194.800 C 273.309 195.790,273.387 196.195,273.482 195.700 C 273.578 195.205,273.578 194.395,273.482 193.900 C 273.387 193.405,273.309 193.810,273.309 194.800 M272.937 201.400 C 272.939 203.160,273.009 203.830,273.093 202.889 C 273.178 201.949,273.177 200.509,273.091 199.689 C 273.005 198.870,272.936 199.640,272.937 201.400 M337.309 201.600 C 337.309 202.590,337.387 202.995,337.482 202.500 C 337.578 202.005,337.578 201.195,337.482 200.700 C 337.387 200.205,337.309 200.610,337.309 201.600 M66.000 203.447 C 66.000 203.667,66.264 204.196,66.587 204.624 C 66.910 205.051,67.175 205.220,67.175 205.000 C 67.175 204.780,66.910 204.251,66.587 203.824 C 66.264 203.396,66.000 203.227,66.000 203.447 M170.501 206.600 C 170.505 207.480,170.587 207.793,170.683 207.295 C 170.779 206.798,170.775 206.078,170.675 205.695 C 170.575 205.313,170.496 205.720,170.501 206.600 M273.301 207.800 C 273.305 208.680,273.387 208.993,273.483 208.495 C 273.579 207.998,273.575 207.278,273.475 206.895 C 273.375 206.513,273.296 206.920,273.301 207.800 M224.175 211.300 L 223.000 212.600 224.300 211.425 C 225.015 210.779,225.600 210.194,225.600 210.125 C 225.600 209.816,225.270 210.088,224.175 211.300 M171.206 214.633 C 171.209 215.055,171.395 215.670,171.618 216.000 C 171.915 216.438,171.952 216.276,171.756 215.400 C 171.427 213.929,171.198 213.610,171.206 214.633 M211.300 214.676 C 211.685 214.776,212.315 214.776,212.700 214.676 C 213.085 214.575,212.770 214.493,212.000 214.493 C 211.230 214.493,210.915 214.575,211.300 214.676 M216.100 214.676 C 216.485 214.776,217.115 214.776,217.500 214.676 C 217.885 214.575,217.570 214.493,216.800 214.493 C 216.030 214.493,215.715 214.575,216.100 214.676 M317.000 218.800 C 317.440 218.989,318.160 219.138,318.600 219.132 C 319.243 219.123,319.204 219.057,318.400 218.800 C 317.032 218.362,315.981 218.362,317.000 218.800 M260.170 233.000 C 260.171 237.840,260.229 239.765,260.299 237.278 C 260.369 234.791,260.369 230.831,260.298 228.478 C 260.228 226.125,260.170 228.160,260.170 233.000 M179.600 233.000 C 180.346 233.770,181.047 234.400,181.157 234.400 C 181.267 234.400,180.746 233.770,180.000 233.000 C 179.254 232.230,178.553 231.600,178.443 231.600 C 178.333 231.600,178.854 232.230,179.600 233.000 M284.400 235.325 C 284.400 235.394,284.985 235.979,285.700 236.625 L 287.000 237.800 285.825 236.500 C 284.730 235.288,284.400 235.016,284.400 235.325 M259.701 244.200 C 259.705 245.080,259.787 245.393,259.883 244.895 C 259.979 244.398,259.975 243.678,259.875 243.295 C 259.775 242.913,259.696 243.320,259.701 244.200 M205.100 243.482 C 205.595 243.578,206.405 243.578,206.900 243.482 C 207.395 243.387,206.990 243.309,206.000 243.309 C 205.010 243.309,204.605 243.387,205.100 243.482 M357.000 245.600 C 356.496 245.817,356.422 245.944,356.800 245.944 C 357.130 245.944,357.760 245.789,358.200 245.600 C 358.704 245.383,358.778 245.256,358.400 245.256 C 358.070 245.256,357.440 245.411,357.000 245.600 M190.800 246.000 C 192.168 246.438,193.219 246.438,192.200 246.000 C 191.760 245.811,191.040 245.662,190.600 245.668 C 189.957 245.677,189.996 245.743,190.800 246.000 M352.105 246.287 C 352.714 246.379,353.614 246.377,354.105 246.282 C 354.597 246.187,354.100 246.111,353.000 246.114 C 351.900 246.117,351.497 246.195,352.105 246.287 M309.300 247.476 C 309.685 247.576,310.315 247.576,310.700 247.476 C 311.085 247.375,310.770 247.293,310.000 247.293 C 309.230 247.293,308.915 247.375,309.300 247.476 M317.300 247.476 C 317.685 247.576,318.315 247.576,318.700 247.476 C 319.085 247.375,318.770 247.293,318.000 247.293 C 317.230 247.293,316.915 247.375,317.300 247.476 M64.291 248.289 C 65.001 248.377,66.261 248.379,67.091 248.292 C 67.921 248.205,67.340 248.133,65.800 248.131 C 64.260 248.129,63.581 248.200,64.291 248.289 M258.446 250.867 C 258.421 251.234,258.296 251.864,258.170 252.267 C 257.952 252.962,257.963 252.963,258.397 252.287 C 258.648 251.896,258.773 251.266,258.673 250.887 C 258.511 250.268,258.488 250.266,258.446 250.867 M211.491 254.289 C 212.201 254.377,213.461 254.379,214.291 254.292 C 215.121 254.205,214.540 254.133,213.000 254.131 C 211.460 254.129,210.781 254.200,211.491 254.289 M248.581 269.300 L 247.000 271.000 248.700 269.419 C 249.635 268.549,250.400 267.784,250.400 267.719 C 250.400 267.416,250.052 267.719,248.581 269.300 M178.383 271.300 C 180.041 273.066,180.400 273.384,180.400 273.083 C 180.400 273.019,179.545 272.164,178.500 271.183 L 176.600 269.400 178.383 271.300 M222.600 281.200 L 221.000 281.486 222.400 281.537 C 223.170 281.565,224.070 281.413,224.400 281.200 C 225.055 280.777,224.962 280.777,222.600 281.200 M203.505 281.483 C 204.002 281.579,204.722 281.575,205.105 281.475 C 205.487 281.375,205.080 281.296,204.200 281.301 C 203.320 281.305,203.007 281.387,203.505 281.483 M207.505 281.883 C 208.002 281.979,208.722 281.975,209.105 281.875 C 209.487 281.775,209.080 281.696,208.200 281.701 C 207.320 281.705,207.007 281.787,207.505 281.883 M217.905 281.883 C 218.402 281.979,219.122 281.975,219.505 281.875 C 219.887 281.775,219.480 281.696,218.600 281.701 C 217.720 281.705,217.407 281.787,217.905 281.883 " stroke="none" fill="#c77cb7" fill-rule="evenodd"></path><path id="path4" d="M242.900 157.487 C 243.505 157.578,244.495 157.578,245.100 157.487 C 245.705 157.395,245.210 157.320,244.000 157.320 C 242.790 157.320,242.295 157.395,242.900 157.487 M184.905 157.887 C 185.514 157.979,186.414 157.977,186.905 157.882 C 187.397 157.787,186.900 157.711,185.800 157.714 C 184.700 157.717,184.297 157.795,184.905 157.887 M228.969 179.400 C 228.970 184.020,229.028 185.855,229.099 183.478 C 229.170 181.101,229.169 177.321,229.098 175.078 C 229.027 172.835,228.969 174.780,228.969 179.400 M200.970 183.400 C 200.971 188.240,201.029 190.165,201.099 187.678 C 201.169 185.191,201.169 181.231,201.098 178.878 C 201.028 176.525,200.970 178.560,200.970 183.400 M368.170 202.600 C 368.171 207.440,368.229 209.365,368.299 206.878 C 368.369 204.391,368.369 200.431,368.298 198.078 C 368.228 195.725,368.170 197.760,368.170 202.600 M304.514 201.400 C 304.517 202.500,304.595 202.903,304.687 202.295 C 304.779 201.686,304.777 200.786,304.682 200.295 C 304.587 199.803,304.511 200.300,304.514 201.400 M259.770 215.800 C 259.771 220.640,259.829 222.565,259.899 220.078 C 259.969 217.591,259.969 213.631,259.898 211.278 C 259.828 208.925,259.770 210.960,259.770 215.800 M228.583 234.427 C 228.385 234.747,228.441 234.822,228.738 234.638 C 229.071 234.433,229.223 235.282,229.280 237.676 L 229.361 241.000 229.498 237.838 C 229.631 234.797,229.244 233.357,228.583 234.427 M312.500 247.491 C 313.325 247.578,314.675 247.578,315.500 247.491 C 316.325 247.405,315.650 247.334,314.000 247.334 C 312.350 247.334,311.675 247.405,312.500 247.491 M122.300 247.882 C 122.795 247.978,123.605 247.978,124.100 247.882 C 124.595 247.787,124.190 247.709,123.200 247.709 C 122.210 247.709,121.805 247.787,122.300 247.882 M211.513 281.895 C 212.676 281.976,214.476 281.976,215.513 281.893 C 216.551 281.811,215.600 281.745,213.400 281.746 C 211.200 281.747,210.351 281.814,211.513 281.895 " stroke="none" fill="#d494c4" fill-rule="evenodd"></path></g></svg>